<?xml version="1.0" encoding="iso-8859-1"?>
<!-- Generator: Adobe Illustrator 16.0.0, SVG Export Plug-In . SVG Version: 6.00 Build 0)  -->
<!DOCTYPE svg PUBLIC "-//W3C//DTD SVG 1.1//EN" "http://www.w3.org/Graphics/SVG/1.1/DTD/svg11.dtd">
<svg version="1.1" id="Capa_1" xmlns="http://www.w3.org/2000/svg" xmlns:xlink="http://www.w3.org/1999/xlink" x="0px" y="0px"
	 width="496.399px" height="496.4px" viewBox="0 0 496.399 496.4" style="enable-background:new 0 0 496.399 496.4;"
	 xml:space="preserve">
<g>
	<path d="M74.8,96.9V49.3c0-11.288,9.112-20.4,20.4-20.4s20.4,9.112,20.4,20.4v47.6c0,11.288-9.112,20.4-20.4,20.4
		S74.8,108.188,74.8,96.9z M292.399,117.3c11.288,0,20.4-9.112,20.4-20.4V49.3c0-11.288-9.112-20.4-20.4-20.4
		C281.112,28.9,272,38.012,272,49.3v47.6C272,108.188,281.112,117.3,292.399,117.3z M414.8,341.701h-20.4v-47.602
		c0-7.506-6.093-13.6-13.6-13.6s-13.6,6.094-13.6,13.6V355.3c0,7.508,6.093,13.6,13.6,13.6h34c7.507,0,13.6-6.092,13.6-13.6
		S422.307,341.701,414.8,341.701z M496.399,351.9c0,63.852-51.748,115.6-115.6,115.6c-45.492,0-84.796-26.383-103.632-64.6H34
		c-18.768,0-34-15.232-34-34V117.3c0-18.768,15.232-34,34-34h27.2v13.6c0,18.768,15.232,34,34,34s34-15.232,34-34V83.3h129.2v13.6
		c0,18.768,15.232,34,34,34c18.769,0,34-15.232,34-34V83.3h27.2c18.769,0,34,15.232,34,34v119.34
		C448.256,240.176,496.399,290.361,496.399,351.9z M252.144,179.86h-110.5v30.532h76.704
		c-15.368,18.632-27.812,39.168-37.332,61.473c-9.452,22.371-15.096,45.627-17,69.836h35.156
		c0.136-10.812,1.428-22.441,3.808-34.885c2.38-12.512,5.78-24.82,10.2-36.992s9.86-23.664,16.388-34.476
		c6.596-10.812,14.076-19.856,22.576-27.268V179.86z M469.2,351.9c0-48.756-39.645-88.4-88.4-88.4s-88.4,39.645-88.4,88.4
		s39.645,88.4,88.4,88.4S469.2,400.656,469.2,351.9z"/>
</g>
<g>
</g>
<g>
</g>
<g>
</g>
<g>
</g>
<g>
</g>
<g>
</g>
<g>
</g>
<g>
</g>
<g>
</g>
<g>
</g>
<g>
</g>
<g>
</g>
<g>
</g>
<g>
</g>
<g>
</g>
</svg>
